<svg width="44" height="44" viewBox="0 0 44 44" fill="none" xmlns="http://www.w3.org/2000/svg">
<path d="M16.1333 20.5333C14.1884 20.5333 12.3232 19.7607 10.9479 18.3855C9.57262 17.0102 8.8 15.1449 8.8 13.2V7.33335C8.8 6.94437 8.95453 6.57131 9.22958 6.29626C9.50463 6.02121 9.87768 5.86668 10.2667 5.86668H11.7333C12.1223 5.86668 12.4954 5.71216 12.7704 5.43711C13.0455 5.16205 13.2 4.789 13.2 4.40002C13.2 4.01103 13.0455 3.63798 12.7704 3.36293C12.4954 3.08787 12.1223 2.93335 11.7333 2.93335H10.2667C9.09972 2.93335 7.98056 3.39692 7.1554 4.22208C6.33024 5.04724 5.86667 6.1664 5.86667 7.33335V13.2C5.86855 14.857 6.2726 16.4887 7.04411 17.9551C7.81562 19.4214 8.93153 20.6786 10.296 21.6187C11.6083 22.7734 12.6723 24.1825 13.4236 25.7608C14.1749 27.339 14.5978 29.0534 14.6667 30.8C14.6667 33.5229 15.7483 36.1343 17.6737 38.0596C19.5991 39.985 22.2104 41.0667 24.9333 41.0667C27.6562 41.0667 30.2676 39.985 32.193 38.0596C34.1183 36.1343 35.2 33.5229 35.2 30.8V29.128C36.5826 28.771 37.7875 27.9221 38.5889 26.7403C39.3903 25.5585 39.7332 24.1249 39.5532 22.7084C39.3733 21.2919 38.683 19.9896 37.6115 19.0457C36.5401 18.1017 35.1612 17.581 33.7333 17.581C32.3054 17.581 30.9265 18.1017 29.8551 19.0457C28.7837 19.9896 28.0934 21.2919 27.9134 22.7084C27.7335 24.1249 28.0764 25.5585 28.8778 26.7403C29.6792 27.9221 30.8841 28.771 32.2667 29.128V30.8C32.2667 32.7449 31.4941 34.6102 30.1188 35.9855C28.7435 37.3607 26.8783 38.1334 24.9333 38.1334C22.9884 38.1334 21.1232 37.3607 19.7479 35.9855C18.3726 34.6102 17.6 32.7449 17.6 30.8C17.6726 29.0513 18.1 27.3355 18.8564 25.7572C19.6128 24.1788 20.6824 22.7708 22 21.6187C23.3591 20.6754 24.4693 19.4168 25.2356 17.9506C26.0018 16.4844 26.4014 14.8544 26.4 13.2V7.33335C26.4 6.1664 25.9364 5.04724 25.1113 4.22208C24.2861 3.39692 23.167 2.93335 22 2.93335H20.5333C20.1444 2.93335 19.7713 3.08787 19.4962 3.36293C19.2212 3.63798 19.0667 4.01103 19.0667 4.40002C19.0667 4.789 19.2212 5.16205 19.4962 5.43711C19.7713 5.71216 20.1444 5.86668 20.5333 5.86668H22C22.389 5.86668 22.762 6.02121 23.0371 6.29626C23.3121 6.57131 23.4667 6.94437 23.4667 7.33335V13.2C23.4667 14.163 23.277 15.1166 22.9085 16.0064C22.5399 16.8961 21.9997 17.7045 21.3188 18.3855C20.6378 19.0664 19.8294 19.6066 18.9397 19.9751C18.05 20.3437 17.0964 20.5333 16.1333 20.5333ZM33.7333 26.4C32.9554 26.4 32.2093 26.091 31.6592 25.5409C31.1091 24.9908 30.8 24.2447 30.8 23.4667C30.8 22.6887 31.1091 21.9426 31.6592 21.3925C32.2093 20.8424 32.9554 20.5333 33.7333 20.5333C34.5113 20.5333 35.2574 20.8424 35.8075 21.3925C36.3576 21.9426 36.6667 22.6887 36.6667 23.4667C36.6667 24.2447 36.3576 24.9908 35.8075 25.5409C35.2574 26.091 34.5113 26.4 33.7333 26.4Z" fill="#ACAE53" stroke="#ACAE53"/>
</svg>
