<svg width="21" height="21" viewBox="0 0 21 21" fill="none" xmlns="http://www.w3.org/2000/svg">
<path d="M16.625 7.875C16.625 7.07065 16.4666 6.27418 16.1588 5.53106C15.851 4.78794 15.3998 4.11273 14.831 3.54397C14.2623 2.97521 13.5871 2.52405 12.8439 2.21624C12.1008 1.90843 11.3043 1.75 10.5 1.75C9.69565 1.75 8.89918 1.90843 8.15606 2.21624C7.41294 2.52405 6.73773 2.97521 6.16897 3.54397C5.60021 4.11273 5.14905 4.78794 4.84124 5.53106C4.53343 6.27418 4.375 7.07065 4.375 7.875C4.375 9.08862 4.73288 10.2174 5.34188 11.1694H5.33488L10.5 19.25L15.6651 11.1694H15.659C16.2898 10.1864 16.6251 9.04297 16.625 7.875ZM10.5 10.5C9.80381 10.5 9.13613 10.2234 8.64384 9.73116C8.15156 9.23887 7.875 8.57119 7.875 7.875C7.875 7.17881 8.15156 6.51113 8.64384 6.01884C9.13613 5.52656 9.80381 5.25 10.5 5.25C11.1962 5.25 11.8639 5.52656 12.3562 6.01884C12.8484 6.51113 13.125 7.17881 13.125 7.875C13.125 8.57119 12.8484 9.23887 12.3562 9.73116C11.8639 10.2234 11.1962 10.5 10.5 10.5Z" fill="#FBB100"/>
</svg>
